%TF.GenerationSoftware,KiCad,Pcbnew,10.0.5-10.0.5~ubuntu24.04.1*%
%TF.CreationDate,2026-08-28T22:02:56+02:00*%
%TF.ProjectId,mdt-chipdown,6d64742d-6368-4697-9064-6f776e2e6b69,B1*%
%TF.SameCoordinates,Original*%
%TF.FileFunction,Paste,Top*%
%TF.FilePolarity,Positive*%
%FSLAX46Y46*%
G04 Gerber Fmt 4.6, Leading zero omitted, Abs format (unit mm)*
G04 Created by KiCad (PCBNEW 10.0.5-10.0.5~ubuntu24.04.1) date 2026-08-28 22:02:56*
%MOMM*%
%LPD*%
G01*
G04 APERTURE LIST*
G04 Aperture macros list*
%AMRoundRect*
0 Rectangle with rounded corners*
0 $1 Rounding radius*
0 $2 $3 $4 $5 $6 $7 $8 $9 X,Y pos of 4 corners*
0 Add a 4 corners polygon primitive as box body*
4,1,4,$2,$3,$4,$5,$6,$7,$8,$9,$2,$3,0*
0 Add four circle primitives for the rounded corners*
1,1,$1+$1,$2,$3*
1,1,$1+$1,$4,$5*
1,1,$1+$1,$6,$7*
1,1,$1+$1,$8,$9*
0 Add four rect primitives between the rounded corners*
20,1,$1+$1,$2,$3,$4,$5,0*
20,1,$1+$1,$4,$5,$6,$7,0*
20,1,$1+$1,$6,$7,$8,$9,0*
20,1,$1+$1,$8,$9,$2,$3,0*%
G04 Aperture macros list end*
%ADD10RoundRect,0.250000X-0.337500X-0.475000X0.337500X-0.475000X0.337500X0.475000X-0.337500X0.475000X0*%
%ADD11RoundRect,0.250000X0.450000X-0.350000X0.450000X0.350000X-0.450000X0.350000X-0.450000X-0.350000X0*%
%ADD12RoundRect,0.400000X-1.200000X0.400000X-1.200000X-0.400000X1.200000X-0.400000X1.200000X0.400000X0*%
%ADD13RoundRect,0.400000X1.200000X-0.400000X1.200000X0.400000X-1.200000X0.400000X-1.200000X-0.400000X0*%
%ADD14RoundRect,0.250000X-0.475000X0.337500X-0.475000X-0.337500X0.475000X-0.337500X0.475000X0.337500X0*%
%ADD15RoundRect,0.100000X-0.100000X0.637500X-0.100000X-0.637500X0.100000X-0.637500X0.100000X0.637500X0*%
%ADD16RoundRect,0.250001X-1.044999X0.872499X-1.044999X-0.872499X1.044999X-0.872499X1.044999X0.872499X0*%
%ADD17RoundRect,0.250000X1.275000X1.125000X-1.275000X1.125000X-1.275000X-1.125000X1.275000X-1.125000X0*%
%ADD18RoundRect,0.250000X0.850000X0.350000X-0.850000X0.350000X-0.850000X-0.350000X0.850000X-0.350000X0*%
%ADD19RoundRect,0.250000X0.337500X0.475000X-0.337500X0.475000X-0.337500X-0.475000X0.337500X-0.475000X0*%
%ADD20RoundRect,0.250000X0.475000X-0.337500X0.475000X0.337500X-0.475000X0.337500X-0.475000X-0.337500X0*%
%ADD21RoundRect,0.192500X-0.192500X0.192500X-0.192500X-0.192500X0.192500X-0.192500X0.192500X0.192500X0*%
%ADD22RoundRect,0.062500X-0.062500X0.275000X-0.062500X-0.275000X0.062500X-0.275000X0.062500X0.275000X0*%
%ADD23RoundRect,0.062500X-0.275000X0.062500X-0.275000X-0.062500X0.275000X-0.062500X0.275000X0.062500X0*%
%ADD24RoundRect,0.250000X0.400000X1.450000X-0.400000X1.450000X-0.400000X-1.450000X0.400000X-1.450000X0*%
%ADD25C,0.394000*%
%ADD26RoundRect,0.150000X0.825000X0.150000X-0.825000X0.150000X-0.825000X-0.150000X0.825000X-0.150000X0*%
%ADD27RoundRect,0.249999X-0.850001X-3.000001X0.850001X-3.000001X0.850001X3.000001X-0.850001X3.000001X0*%
%ADD28RoundRect,0.250000X-0.350000X-0.450000X0.350000X-0.450000X0.350000X0.450000X-0.350000X0.450000X0*%
%ADD29RoundRect,0.250000X0.900000X-1.500000X0.900000X1.500000X-0.900000X1.500000X-0.900000X-1.500000X0*%
%ADD30RoundRect,0.162500X0.162500X-0.617500X0.162500X0.617500X-0.162500X0.617500X-0.162500X-0.617500X0*%
%ADD31R,1.600000X1.400000*%
%ADD32R,1.200000X2.200000*%
%ADD33R,0.700000X1.600000*%
%ADD34R,1.200000X1.400000*%
%ADD35RoundRect,0.200000X-0.200000X0.400000X-0.200000X-0.400000X0.200000X-0.400000X0.200000X0.400000X0*%
%ADD36RoundRect,0.250000X-0.450000X0.325000X-0.450000X-0.325000X0.450000X-0.325000X0.450000X0.325000X0*%
%ADD37RoundRect,0.150000X0.150000X0.470000X-0.150000X0.470000X-0.150000X-0.470000X0.150000X-0.470000X0*%
%ADD38RoundRect,0.075000X0.075000X0.545000X-0.075000X0.545000X-0.075000X-0.545000X0.075000X-0.545000X0*%
%ADD39RoundRect,0.250000X0.350000X0.450000X-0.350000X0.450000X-0.350000X-0.450000X0.350000X-0.450000X0*%
%ADD40RoundRect,0.250000X-0.450000X0.350000X-0.450000X-0.350000X0.450000X-0.350000X0.450000X0.350000X0*%
%ADD41RoundRect,0.250000X-1.450000X0.400000X-1.450000X-0.400000X1.450000X-0.400000X1.450000X0.400000X0*%
%ADD42RoundRect,0.200000X-0.750000X-0.200000X0.750000X-0.200000X0.750000X0.200000X-0.750000X0.200000X0*%
%ADD43RoundRect,0.250000X-0.800000X-0.650000X0.800000X-0.650000X0.800000X0.650000X-0.800000X0.650000X0*%
%ADD44RoundRect,0.200000X0.200000X-0.750000X0.200000X0.750000X-0.200000X0.750000X-0.200000X-0.750000X0*%
%ADD45RoundRect,0.250001X0.944999X-0.872499X0.944999X0.872499X-0.944999X0.872499X-0.944999X-0.872499X0*%
%ADD46RoundRect,0.162500X0.650000X0.162500X-0.650000X0.162500X-0.650000X-0.162500X0.650000X-0.162500X0*%
%ADD47RoundRect,0.162500X-0.162500X0.617500X-0.162500X-0.617500X0.162500X-0.617500X0.162500X0.617500X0*%
G04 APERTURE END LIST*
D10*
%TO.C,C27*%
X97336700Y-86182200D03*
X99411700Y-86182200D03*
%TD*%
D11*
%TO.C,R9*%
X62992000Y-70574500D03*
X62992000Y-68574500D03*
%TD*%
D12*
%TO.C,TRS3*%
X89913460Y-40234140D03*
D13*
X89913460Y-37234400D03*
D12*
X83416140Y-45334460D03*
X89913460Y-44234640D03*
%TD*%
D14*
%TO.C,C1*%
X127457200Y-55096500D03*
X127457200Y-57171500D03*
%TD*%
D15*
%TO.C,U4*%
X66832000Y-59113500D03*
X66182000Y-59113500D03*
X65532000Y-59113500D03*
X64882000Y-59113500D03*
X64232000Y-59113500D03*
X63582000Y-59113500D03*
X62932000Y-59113500D03*
X62282000Y-59113500D03*
X61632000Y-59113500D03*
X60982000Y-59113500D03*
X60982000Y-64838500D03*
X61632000Y-64838500D03*
X62282000Y-64838500D03*
X62932000Y-64838500D03*
X63582000Y-64838500D03*
X64232000Y-64838500D03*
X64882000Y-64838500D03*
X65532000Y-64838500D03*
X66182000Y-64838500D03*
X66832000Y-64838500D03*
%TD*%
D16*
%TO.C,C2*%
X131318000Y-55771300D03*
X131318000Y-62186300D03*
%TD*%
D17*
%TO.C,U2*%
X73391000Y-79497000D03*
X73391000Y-76447000D03*
X70041000Y-79497000D03*
X70041000Y-76447000D03*
D18*
X78016000Y-80252000D03*
X78016000Y-75692000D03*
%TD*%
D12*
%TO.C,TRS2*%
X76908660Y-40234140D03*
D13*
X76908660Y-37234400D03*
D12*
X70411340Y-45334460D03*
X76908660Y-44234640D03*
%TD*%
D19*
%TO.C,C6*%
X66569500Y-76708000D03*
X64494500Y-76708000D03*
%TD*%
D11*
%TO.C,R20*%
X104952800Y-60029600D03*
X104952800Y-58029600D03*
%TD*%
D20*
%TO.C,C9*%
X69088000Y-65045500D03*
X69088000Y-62970500D03*
%TD*%
D21*
%TO.C,U7*%
X121238600Y-71141500D03*
X120288600Y-71141500D03*
X121238600Y-72091500D03*
X120288600Y-72091500D03*
D22*
X121513600Y-70104000D03*
X121013600Y-70104000D03*
X120513600Y-70104000D03*
X120013600Y-70104000D03*
D23*
X119251100Y-70866500D03*
X119251100Y-71366500D03*
X119251100Y-71866500D03*
X119251100Y-72366500D03*
D22*
X120013600Y-73129000D03*
X120513600Y-73129000D03*
X121013600Y-73129000D03*
X121513600Y-73129000D03*
D23*
X122276100Y-72366500D03*
X122276100Y-71866500D03*
X122276100Y-71366500D03*
X122276100Y-70866500D03*
%TD*%
D24*
%TO.C,F2*%
X99253000Y-45720000D03*
X94803000Y-45720000D03*
%TD*%
D25*
%TO.C,U9*%
X104432800Y-66700400D03*
X105232800Y-66700400D03*
X106032800Y-66700400D03*
X106832800Y-66700400D03*
X107632800Y-66700400D03*
X108432800Y-66700400D03*
X109232800Y-66700400D03*
X110032800Y-66700400D03*
X110832800Y-66700400D03*
X111632800Y-66700400D03*
X112432800Y-66700400D03*
X113232800Y-66700400D03*
X114032800Y-66700400D03*
X114832800Y-66700400D03*
X104432800Y-67500400D03*
X105232800Y-67500400D03*
X106032800Y-67500400D03*
X106832800Y-67500400D03*
X107632800Y-67500400D03*
X108432800Y-67500400D03*
X109232800Y-67500400D03*
X110032800Y-67500400D03*
X110832800Y-67500400D03*
X111632800Y-67500400D03*
X112432800Y-67500400D03*
X113232800Y-67500400D03*
X114032800Y-67500400D03*
X114832800Y-67500400D03*
X104432800Y-68300400D03*
X105232800Y-68300400D03*
X106032800Y-68300400D03*
X106832800Y-68300400D03*
X107632800Y-68300400D03*
X108432800Y-68300400D03*
X109232800Y-68300400D03*
X110032800Y-68300400D03*
X110832800Y-68300400D03*
X111632800Y-68300400D03*
X112432800Y-68300400D03*
X113232800Y-68300400D03*
X114032800Y-68300400D03*
X114832800Y-68300400D03*
X104432800Y-69100400D03*
X105232800Y-69100400D03*
X106032800Y-69100400D03*
X106832800Y-69100400D03*
X107632800Y-69100400D03*
X108432800Y-69100400D03*
X109232800Y-69100400D03*
X110032800Y-69100400D03*
X110832800Y-69100400D03*
X111632800Y-69100400D03*
X112432800Y-69100400D03*
X113232800Y-69100400D03*
X114032800Y-69100400D03*
X114832800Y-69100400D03*
X104432800Y-69900400D03*
X105232800Y-69900400D03*
X106032800Y-69900400D03*
X106832800Y-69900400D03*
X107632800Y-69900400D03*
X108432800Y-69900400D03*
X109232800Y-69900400D03*
X110032800Y-69900400D03*
X110832800Y-69900400D03*
X111632800Y-69900400D03*
X112432800Y-69900400D03*
X113232800Y-69900400D03*
X114032800Y-69900400D03*
X114832800Y-69900400D03*
X104432800Y-70700400D03*
X105232800Y-70700400D03*
X106032800Y-70700400D03*
X106832800Y-70700400D03*
X107632800Y-70700400D03*
X108432800Y-70700400D03*
X109232800Y-70700400D03*
X110032800Y-70700400D03*
X110832800Y-70700400D03*
X111632800Y-70700400D03*
X112432800Y-70700400D03*
X113232800Y-70700400D03*
X114032800Y-70700400D03*
X114832800Y-70700400D03*
X104432800Y-71500400D03*
X105232800Y-71500400D03*
X106032800Y-71500400D03*
X106832800Y-71500400D03*
X107632800Y-71500400D03*
X108432800Y-71500400D03*
X109232800Y-71500400D03*
X110032800Y-71500400D03*
X110832800Y-71500400D03*
X111632800Y-71500400D03*
X112432800Y-71500400D03*
X113232800Y-71500400D03*
X114032800Y-71500400D03*
X114832800Y-71500400D03*
X104432800Y-72300400D03*
X105232800Y-72300400D03*
X106032800Y-72300400D03*
X106832800Y-72300400D03*
X107632800Y-72300400D03*
X108432800Y-72300400D03*
X109232800Y-72300400D03*
X110032800Y-72300400D03*
X110832800Y-72300400D03*
X111632800Y-72300400D03*
X112432800Y-72300400D03*
X113232800Y-72300400D03*
X114032800Y-72300400D03*
X114832800Y-72300400D03*
X104432800Y-73100400D03*
X105232800Y-73100400D03*
X106032800Y-73100400D03*
X106832800Y-73100400D03*
X107632800Y-73100400D03*
X108432800Y-73100400D03*
X109232800Y-73100400D03*
X110032800Y-73100400D03*
X110832800Y-73100400D03*
X111632800Y-73100400D03*
X112432800Y-73100400D03*
X113232800Y-73100400D03*
X114032800Y-73100400D03*
X114832800Y-73100400D03*
X104432800Y-73900400D03*
X105232800Y-73900400D03*
X106032800Y-73900400D03*
X106832800Y-73900400D03*
X107632800Y-73900400D03*
X108432800Y-73900400D03*
X109232800Y-73900400D03*
X110032800Y-73900400D03*
X110832800Y-73900400D03*
X111632800Y-73900400D03*
X112432800Y-73900400D03*
X113232800Y-73900400D03*
X114032800Y-73900400D03*
X114832800Y-73900400D03*
X104432800Y-74700400D03*
X105232800Y-74700400D03*
X106032800Y-74700400D03*
X106832800Y-74700400D03*
X107632800Y-74700400D03*
X108432800Y-74700400D03*
X109232800Y-74700400D03*
X110032800Y-74700400D03*
X110832800Y-74700400D03*
X111632800Y-74700400D03*
X112432800Y-74700400D03*
X113232800Y-74700400D03*
X114032800Y-74700400D03*
X114832800Y-74700400D03*
X104432800Y-75500400D03*
X105232800Y-75500400D03*
X106032800Y-75500400D03*
X106832800Y-75500400D03*
X107632800Y-75500400D03*
X108432800Y-75500400D03*
X109232800Y-75500400D03*
X110032800Y-75500400D03*
X110832800Y-75500400D03*
X111632800Y-75500400D03*
X112432800Y-75500400D03*
X113232800Y-75500400D03*
X114032800Y-75500400D03*
X114832800Y-75500400D03*
X104432800Y-76300400D03*
X105232800Y-76300400D03*
X106032800Y-76300400D03*
X106832800Y-76300400D03*
X107632800Y-76300400D03*
X108432800Y-76300400D03*
X109232800Y-76300400D03*
X110032800Y-76300400D03*
X110832800Y-76300400D03*
X111632800Y-76300400D03*
X112432800Y-76300400D03*
X113232800Y-76300400D03*
X114032800Y-76300400D03*
X114832800Y-76300400D03*
X104432800Y-77100400D03*
X105232800Y-77100400D03*
X106032800Y-77100400D03*
X106832800Y-77100400D03*
X107632800Y-77100400D03*
X108432800Y-77100400D03*
X109232800Y-77100400D03*
X110032800Y-77100400D03*
X110832800Y-77100400D03*
X111632800Y-77100400D03*
X112432800Y-77100400D03*
X113232800Y-77100400D03*
X114032800Y-77100400D03*
X114832800Y-77100400D03*
%TD*%
D26*
%TO.C,U5*%
X98766400Y-68326000D03*
X98766400Y-67056000D03*
X98766400Y-65786000D03*
X98766400Y-64516000D03*
X93816400Y-64516000D03*
X93816400Y-65786000D03*
X93816400Y-67056000D03*
X93816400Y-68326000D03*
%TD*%
D27*
%TO.C,Y2*%
X108204000Y-88977600D03*
%TD*%
D28*
%TO.C,R10*%
X56302400Y-71120000D03*
X58302400Y-71120000D03*
%TD*%
D11*
%TO.C,R12*%
X58928000Y-55356000D03*
X58928000Y-53356000D03*
%TD*%
D29*
%TO.C,D2*%
X95554800Y-41612800D03*
X95554800Y-36212800D03*
%TD*%
D30*
%TO.C,U1*%
X123306800Y-57941200D03*
X124256800Y-57941200D03*
X125206800Y-57941200D03*
X125206800Y-55241200D03*
X124256800Y-55241200D03*
X123306800Y-55241200D03*
%TD*%
D16*
%TO.C,C3*%
X94945200Y-50767500D03*
X94945200Y-57182500D03*
%TD*%
D19*
%TO.C,C7*%
X66569500Y-79248000D03*
X64494500Y-79248000D03*
%TD*%
D14*
%TO.C,C12*%
X58978800Y-58500100D03*
X58978800Y-60575100D03*
%TD*%
D31*
%TO.C,J4*%
X110964600Y-99010800D03*
D32*
X96364600Y-108510800D03*
D33*
X106364600Y-98410800D03*
X105264600Y-98410800D03*
X104164600Y-98410800D03*
X103064600Y-98410800D03*
X101964600Y-98410800D03*
X100864600Y-98410800D03*
X99764600Y-98410800D03*
X98664600Y-98410800D03*
X97564600Y-98410800D03*
D34*
X96364600Y-99010800D03*
D32*
X111864600Y-108610800D03*
%TD*%
D10*
%TO.C,C43*%
X101476900Y-54813200D03*
X103551900Y-54813200D03*
%TD*%
D14*
%TO.C,C15*%
X66548000Y-53340000D03*
X66548000Y-55415000D03*
%TD*%
D35*
%TO.C,OC1*%
X88138000Y-70510000D03*
X85598000Y-70510000D03*
X85598000Y-76810000D03*
X86868000Y-76810000D03*
X88138000Y-76810000D03*
%TD*%
D11*
%TO.C,R5*%
X76200000Y-59420000D03*
X76200000Y-57420000D03*
%TD*%
D36*
%TO.C,L1*%
X99415600Y-48911400D03*
X99415600Y-50961400D03*
%TD*%
D14*
%TO.C,C16*%
X66526500Y-48746500D03*
X66526500Y-50821500D03*
%TD*%
D37*
%TO.C,USB2*%
X107848000Y-39996200D03*
X107048000Y-39996200D03*
D38*
X105898000Y-39996200D03*
X104898000Y-39996200D03*
X104398000Y-39996200D03*
X103398000Y-39996200D03*
D37*
X102248000Y-39996200D03*
X101448000Y-39996200D03*
X101448000Y-39996200D03*
X102248000Y-39996200D03*
D38*
X102898000Y-39996200D03*
X103898000Y-39996200D03*
X105398000Y-39996200D03*
X106398000Y-39996200D03*
D37*
X107048000Y-39996200D03*
X107848000Y-39996200D03*
%TD*%
D14*
%TO.C,C14*%
X64008000Y-53340000D03*
X64008000Y-55415000D03*
%TD*%
D28*
%TO.C,R13*%
X131842000Y-73710800D03*
X133842000Y-73710800D03*
%TD*%
D12*
%TO.C,TRS1*%
X64208660Y-40234140D03*
D13*
X64208660Y-37234400D03*
D12*
X57711340Y-45334460D03*
X64208660Y-44234640D03*
%TD*%
D20*
%TO.C,C53*%
X71501000Y-60524300D03*
X71501000Y-58449300D03*
%TD*%
D14*
%TO.C,C11*%
X69088000Y-58449300D03*
X69088000Y-60524300D03*
%TD*%
D39*
%TO.C,R4*%
X88376000Y-64516000D03*
X86376000Y-64516000D03*
%TD*%
D14*
%TO.C,C25*%
X112471200Y-85347900D03*
X112471200Y-87422900D03*
%TD*%
D20*
%TO.C,C21*%
X65532000Y-70633500D03*
X65532000Y-68558500D03*
%TD*%
D10*
%TO.C,C23*%
X93526700Y-77647800D03*
X95601700Y-77647800D03*
%TD*%
D40*
%TO.C,R3*%
X73660000Y-57420000D03*
X73660000Y-59420000D03*
%TD*%
D14*
%TO.C,C26*%
X114655600Y-85347900D03*
X114655600Y-87422900D03*
%TD*%
D20*
%TO.C,C24*%
X122148600Y-67966500D03*
X122148600Y-65891500D03*
%TD*%
D41*
%TO.C,F1*%
X130810000Y-48575000D03*
X130810000Y-53025000D03*
%TD*%
D14*
%TO.C,C13*%
X69088000Y-53318500D03*
X69088000Y-55393500D03*
%TD*%
D10*
%TO.C,C22*%
X93526700Y-70205600D03*
X95601700Y-70205600D03*
%TD*%
D11*
%TO.C,R11*%
X61468000Y-55356000D03*
X61468000Y-53356000D03*
%TD*%
D28*
%TO.C,R7*%
X131842000Y-71628000D03*
X133842000Y-71628000D03*
%TD*%
%TO.C,R8*%
X131740400Y-66243200D03*
X133740400Y-66243200D03*
%TD*%
D42*
%TO.C,D6*%
X110158400Y-59705200D03*
X110158400Y-61605200D03*
X113158400Y-60655200D03*
%TD*%
D43*
%TO.C,Y1*%
X112088000Y-82568800D03*
X114988000Y-82568800D03*
X114988000Y-80268800D03*
X112088000Y-80268800D03*
%TD*%
D44*
%TO.C,D7*%
X87213400Y-51817400D03*
X89113400Y-51817400D03*
X88163400Y-48817400D03*
%TD*%
D30*
%TO.C,U11*%
X73929200Y-65129400D03*
X74879200Y-65129400D03*
X75829200Y-65129400D03*
X75829200Y-62429400D03*
X74879200Y-62429400D03*
X73929200Y-62429400D03*
%TD*%
D14*
%TO.C,C18*%
X64008000Y-48768000D03*
X64008000Y-50843000D03*
%TD*%
D45*
%TO.C,C10*%
X55778400Y-54551300D03*
X55778400Y-49436300D03*
%TD*%
D19*
%TO.C,C5*%
X78761500Y-70104000D03*
X76686500Y-70104000D03*
%TD*%
D14*
%TO.C,C19*%
X58928000Y-48746500D03*
X58928000Y-50821500D03*
%TD*%
D19*
%TO.C,C4*%
X78761500Y-72644000D03*
X76686500Y-72644000D03*
%TD*%
D20*
%TO.C,C17*%
X68072000Y-70612000D03*
X68072000Y-68537000D03*
%TD*%
D44*
%TO.C,D1*%
X82961400Y-51817400D03*
X84861400Y-51817400D03*
X83911400Y-48817400D03*
%TD*%
D46*
%TO.C,U8*%
X104628700Y-83820000D03*
X104628700Y-82550000D03*
X104628700Y-81280000D03*
X104628700Y-80010000D03*
X97453700Y-80010000D03*
X97453700Y-81280000D03*
X97453700Y-82550000D03*
X97453700Y-83820000D03*
%TD*%
D11*
%TO.C,R14*%
X116814600Y-87334600D03*
X116814600Y-85334600D03*
%TD*%
D44*
%TO.C,Q1*%
X101564400Y-52350800D03*
X103464400Y-52350800D03*
X102514400Y-49350800D03*
%TD*%
D40*
%TO.C,R15*%
X119888000Y-65913000D03*
X119888000Y-67913000D03*
%TD*%
D14*
%TO.C,C20*%
X61446500Y-48768000D03*
X61446500Y-50843000D03*
%TD*%
D26*
%TO.C,U6*%
X98766400Y-75844400D03*
X98766400Y-74574400D03*
X98766400Y-73304400D03*
X98766400Y-72034400D03*
X93816400Y-72034400D03*
X93816400Y-73304400D03*
X93816400Y-74574400D03*
X93816400Y-75844400D03*
%TD*%
D31*
%TO.C,J5*%
X92651200Y-99061600D03*
D32*
X78051200Y-108561600D03*
D33*
X88051200Y-98461600D03*
X86951200Y-98461600D03*
X85851200Y-98461600D03*
X84751200Y-98461600D03*
X83651200Y-98461600D03*
X82551200Y-98461600D03*
X81451200Y-98461600D03*
X80351200Y-98461600D03*
X79251200Y-98461600D03*
D34*
X78051200Y-99061600D03*
D32*
X93551200Y-108661600D03*
%TD*%
D47*
%TO.C,U10*%
X103108800Y-57527200D03*
X102158800Y-57527200D03*
X101208800Y-57527200D03*
X101208800Y-60227200D03*
X103108800Y-60227200D03*
%TD*%
D39*
%TO.C,R6*%
X87868000Y-80518000D03*
X85868000Y-80518000D03*
%TD*%
M02*
