M48
; DRILL file KiCad 10.0.5-10.0.5~ubuntu24.04.1 date 2026-08-28T22:02:56
; FORMAT={-:-/ absolute / inch / decimal}
; #@! TF.CreationDate,2026-08-28T22:02:56+02:00
; #@! TF.GenerationSoftware,Kicad,Pcbnew,10.0.5-10.0.5~ubuntu24.04.1
; #@! TF.FileFunction,Plated,1,4,PTH
FMAT,2
INCH
; #@! TA.AperFunction,Plated,PTH,ViaDrill
T1C0.0079
; #@! TA.AperFunction,Plated,PTH,ViaDrill
T2C0.0118
; #@! TA.AperFunction,Plated,PTH,ComponentDrill
T3C0.0197
; #@! TA.AperFunction,Plated,PTH,ComponentDrill
T4C0.0236
; #@! TA.AperFunction,Plated,PTH,ComponentDrill
T5C0.0315
; #@! TA.AperFunction,Plated,PTH,ComponentDrill
T6C0.0354
; #@! TA.AperFunction,Plated,PTH,ComponentDrill
T7C0.0374
; #@! TA.AperFunction,Plated,PTH,ComponentDrill
T8C0.0394
; #@! TA.AperFunction,Plated,PTH,ComponentDrill
T9C0.0400
; #@! TA.AperFunction,Plated,PTH,ComponentDrill
T10C0.0472
; #@! TA.AperFunction,Plated,PTH,ComponentDrill
T11C0.0591
; #@! TA.AperFunction,Plated,PTH,ComponentDrill
T12C0.0906
; #@! TA.AperFunction,Plated,PTH,ComponentDrill
T13C0.1181
; #@! TA.AperFunction,Plated,PTH,ComponentDrill
T14C0.1220
%
G90
G05
T1
X3.491Y-3.248
X3.505Y-3.428
X3.5106Y-3.2641
X3.5137Y-3.3818
X3.526Y-3.456
X3.531Y-3.49
X3.5391Y-3.2741
X3.5525Y-3.5315
X3.554Y-3.296
X3.554Y-3.394
X3.555Y-3.417
X3.556Y-3.348
X3.575Y-3.545
X3.5803Y-3.5153
X3.5977Y-3.551
X3.6Y-3.58
X3.622Y-3.617
X3.628Y-3.585
X3.644Y-3.328
X3.644Y-3.364
X3.6627Y-3.2397
X3.68Y-3.254
X3.7011Y-3.2371
X3.721Y-3.254
X4.002Y-2.947
X4.0023Y-2.9203
X4.0042Y-2.8942
X4.081Y-2.8274
X4.0811Y-2.7672
X4.125Y-1.637
X4.155Y-1.637
X4.1588Y-2.7352
X4.1588Y-2.6722
X4.159Y-2.894
X4.1591Y-2.7672
X4.188Y-2.925
X4.1883Y-3.0639
X4.19Y-2.642
X4.19Y-2.83
X4.19Y-2.893
X4.1903Y-2.7996
X4.1908Y-2.7042
X4.2212Y-2.6412
X4.2214Y-2.7366
X4.2218Y-2.8282
X4.2218Y-2.9897
X4.222Y-2.8981
X4.2524Y-2.8974
X4.2525Y-2.6425
X4.2535Y-2.7371
X4.269Y-3.074
X4.269Y-2.799
X4.2836Y-2.8944
X4.2848Y-2.7353
X4.285Y-2.956
X4.285Y-2.988
X4.287Y-3.054
X4.3145Y-2.8592
X4.3157Y-2.7357
X4.316Y-2.9268
X4.316Y-2.957
X4.316Y-2.989
X4.3165Y-2.8305
X4.317Y-2.7835
X4.3421Y-2.9308
X4.3442Y-2.9575
X4.347Y-2.7835
X4.348Y-2.641
X4.3511Y-2.8963
X4.3635Y-2.831
X4.3635Y-2.8592
X4.3789Y-2.956
X4.379Y-2.736
X4.3791Y-2.7033
X4.3793Y-2.7677
X4.3795Y-2.9224
X4.38Y-2.642
X4.38Y-2.988
X4.4087Y-2.9563
X4.4102Y-2.9258
X4.4105Y-2.7995
X4.411Y-2.61
X4.4117Y-2.9897
X4.412Y-2.673
X4.4384Y-2.9297
X4.4403Y-2.8897
X4.4404Y-2.8301
X4.4413Y-2.8602
X4.4422Y-2.9593
X4.443Y-2.799
X4.4595Y-3.062
X4.4732Y-2.7677
X4.4753Y-2.8298
X4.4759Y-2.9564
X4.476Y-2.862
X4.4781Y-2.8951
X4.493Y-3.073
X4.5033Y-2.9527
X4.5051Y-3.0198
X4.5429Y-2.8929
X4.5448Y-3.0226
X4.546Y-2.974
X4.5499Y-2.8666
X4.553Y-2.939
X4.558Y-2.8371
X4.56Y-3.041
X4.5674Y-2.6994
X4.568Y-2.724
X4.568Y-3.0958
X4.5682Y-2.9732
X4.5751Y-2.935
X4.5763Y-2.8991
X4.586Y-3.1755
X4.629Y-2.804
X4.6361Y-2.774
X4.64Y-2.8525
X4.6439Y-2.934
X4.647Y-3.1757
X4.65Y-3.061
X4.65Y-3.1
X4.6531Y-2.8042
X4.671Y-3.19
X4.6919Y-3.1757
X4.707Y-3.1934
X4.7232Y-3.1791
X4.733Y-2.82
X4.754Y-3.189
X4.7545Y-2.82
X4.776Y-2.82
T2
X1.942Y-2.162
X1.942Y-2.2
X1.942Y-2.236
X2.118Y-2.728
X2.146Y-2.652
X2.156Y-2.904
X2.156Y-2.936
X2.156Y-2.968
X2.164Y-2.302
X2.166Y-1.852
X2.172Y-2.536
X2.198Y-2.562
X2.2Y-1.852
X2.2Y-2.302
X2.232Y-2.08
X2.234Y-1.852
X2.3Y-2.25
X2.314Y-2.826
X2.324Y-2.674
X2.33Y-2.25
X2.33Y-3.37
X2.3375Y-2.8495
X2.35Y-2.7
X2.35Y-2.93
X2.35Y-2.96
X2.35Y-2.99
X2.35Y-3.39
X2.37Y-3.41
X2.37Y-3.51
X2.4Y-3.51
X2.42Y-3.32
X2.422Y-2.422
X2.43Y-3.51
X2.44Y-3.34
X2.46Y-2.86
X2.46Y-2.89
X2.46Y-3.0
X2.46Y-3.03
X2.46Y-3.1
X2.46Y-3.13
X2.46Y-3.36
X2.46Y-3.51
X2.49Y-2.89
X2.49Y-3.51
X2.52Y-2.394
X2.538Y-3.22
X2.55Y-2.486
X2.554Y-2.394
X2.572Y-3.22
X2.588Y-2.394
X2.588Y-2.484
X2.652Y-1.434
X2.652Y-1.466
X2.652Y-1.498
X2.787Y-2.45
X2.787Y-2.48
X2.787Y-2.51
X2.79Y-3.81
X2.81Y-3.79
X2.82Y-2.18
X2.82Y-2.212
X2.82Y-2.242
X2.83Y-3.77
X2.9Y-2.212
X2.913Y-2.628
X2.94Y-3.8
X2.94Y-3.83
X2.94Y-3.86
X2.96Y-2.73
X2.96Y-2.76
X2.96Y-2.79
X2.96Y-2.83
X2.96Y-2.86
X2.96Y-2.89
X2.979Y-2.186
X3.02Y-2.69
X3.03Y-3.74
X3.03Y-3.77
X3.03Y-3.8
X3.049Y-2.261
X3.11Y-1.978
X3.144Y-2.948
X3.15Y-3.13
X3.15Y-3.16
X3.15Y-3.19
X3.156Y-1.434
X3.156Y-1.466
X3.156Y-1.498
X3.17Y-2.948
X3.177Y-3.96
X3.19Y-3.74
X3.22Y-3.74
X3.25Y-3.74
X3.25Y-3.813
X3.275Y-3.959
X3.3Y-2.64
X3.31Y-3.11
X3.324Y-4.135
X3.339Y-3.814
X3.34Y-3.11
X3.368Y-3.958
X3.37Y-3.11
X3.384Y-2.36
X3.422Y-2.24
X3.422Y-2.282
X3.434Y-2.106
X3.434Y-2.36
X3.46Y-3.957
X3.47Y-2.963
X3.484Y-2.36
X3.509Y-2.106
X3.54Y-2.484
X3.54Y-2.54
X3.54Y-3.69
X3.56Y-3.15
X3.56Y-3.67
X3.57Y-2.76
X3.57Y-2.79
X3.57Y-2.82
X3.58Y-3.13
X3.58Y-3.65
X3.6Y-3.11
X3.6Y-3.76
X3.62Y-3.74
X3.628Y-1.918
X3.637Y-2.764
X3.637Y-2.834
X3.637Y-3.058
X3.64Y-3.72
X3.656Y-1.388
X3.656Y-1.418
X3.656Y-1.446
X3.676Y-1.918
X3.74Y-3.28
X3.74Y-3.31
X3.74Y-3.34
X3.74Y-3.5
X3.74Y-3.53
X3.74Y-3.56
X3.755Y-2.571
X3.7587Y-2.652
X3.761Y-2.954
X3.762Y-2.925
X3.7767Y-3.3737
X3.789Y-3.199
X3.801Y-2.869
X3.802Y-1.918
X3.822Y-2.59
X3.829Y-2.62
X3.84Y-3.74
X3.84Y-3.77
X3.846Y-1.918
X3.868Y-1.388
X3.868Y-1.418
X3.868Y-1.446
X3.888Y-2.794
X3.89Y-2.498
X3.894Y-3.149
X3.894Y-3.25
X3.91Y-3.31
X3.91Y-3.5
X3.91Y-3.53
X3.91Y-3.56
X3.911Y-2.753
X3.917Y-2.794
X3.919Y-2.498
X3.924Y-1.646
X3.94Y-3.21
X3.94Y-3.24
X3.94Y-3.31
X3.9458Y-3.0082
X3.953Y-2.267
X3.954Y-1.646
X3.959Y-3.608
X3.967Y-3.547
X3.971Y-3.813
X3.976Y-3.688
X3.984Y-1.646
X3.9872Y-3.6093
X4.009Y-3.813
X4.01Y-3.74
X4.01Y-3.77
X4.024Y-3.01
X4.044Y-3.687
X4.058Y-3.813
X4.06Y-3.01
X4.06Y-3.138
X4.06Y-3.21
X4.06Y-3.24
X4.06Y-3.5
X4.06Y-3.53
X4.06Y-3.56
X4.061Y-3.062
X4.063Y-3.177
X4.063Y-3.275
X4.068Y-1.624
X4.069Y-2.584
X4.073Y-2.683
X4.0765Y-3.6865
X4.0828Y-2.9688
X4.083Y-2.941
X4.103Y-2.414
X4.111Y-3.813
X4.122Y-2.498
X4.123Y-2.157
X4.13Y-1.77
X4.132Y-2.414
X4.15Y-1.79
X4.15Y-3.15
X4.152Y-2.497
X4.155Y-3.358
X4.17Y-1.81
X4.17Y-3.71
X4.178Y-3.288
X4.178Y-3.308
X4.182Y-2.497
X4.184Y-1.624
X4.19Y-3.73
X4.21Y-1.71
X4.21Y-3.75
X4.23Y-1.73
X4.23Y-3.67
X4.246Y-1.646
X4.25Y-1.75
X4.26Y-3.67
X4.2602Y-3.1587
X4.276Y-1.646
X4.2877Y-3.1862
X4.29Y-3.67
X4.306Y-1.646
X4.323Y-3.074
X4.332Y-2.271
X4.342Y-2.58
X4.343Y-3.252
X4.343Y-3.278
X4.368Y-3.359
X4.373Y-2.58
X4.3832Y-3.075
X4.42Y-3.5
X4.421Y-2.531
X4.432Y-3.312
X4.45Y-3.5
X4.451Y-2.271
X4.455Y-3.312
X4.5Y-3.5
X4.519Y-2.387
X4.53Y-3.5
X4.55Y-2.547
X4.5606Y-2.613
X4.561Y-2.643
X4.572Y-2.272
X4.579Y-2.5473
X4.59Y-3.5
X4.608Y-2.5473
X4.61Y-3.27
X4.61Y-3.3
X4.614Y-2.387
X4.62Y-3.5
X4.64Y-2.7
X4.6655Y-2.4755
X4.67Y-2.7
X4.68Y-2.871
X4.68Y-3.27
X4.68Y-3.3
X4.68Y-3.33
X4.69Y-3.82
X4.69Y-3.85
X4.69Y-3.88
X4.7Y-2.19
X4.712Y-2.902
X4.72Y-2.21
X4.72Y-2.595
X4.73Y-1.78
X4.74Y-2.23
X4.76Y-1.78
X4.79Y-1.78
X4.804Y-2.279
X4.809Y-2.5942
X4.81Y-3.82
X4.81Y-3.85
X4.81Y-3.88
X4.82Y-1.78
X4.82Y-3.27
X4.82Y-3.3
X4.82Y-3.33
X4.83Y-2.02
X4.83Y-2.05
X4.83Y-2.08
X4.84Y-2.34
X4.845Y-2.848
X4.8452Y-2.8115
X4.8461Y-2.8791
X4.85Y-1.78
X4.852Y-2.676
X4.87Y-2.23
X4.87Y-2.34
X4.88Y-1.78
X4.91Y-2.02
X4.91Y-2.05
X4.91Y-2.08
X4.91Y-2.23
X4.92Y-2.42
X4.92Y-2.45
X4.92Y-2.48
X4.92Y-2.59
X4.92Y-2.62
X4.99Y-1.78
X4.99Y-1.81
X4.99Y-2.31
X4.99Y-2.59
X4.99Y-2.62
X4.998Y-2.019
X4.998Y-2.049
X4.998Y-2.079
X5.02Y-2.31
X5.05Y-2.31
X5.136Y-2.82
X5.17Y-2.53
X5.17Y-2.71
X5.187Y-2.994
X5.2Y-2.53
X5.2Y-2.71
X5.23Y-2.53
X5.23Y-2.71
X5.23Y-3.88
X5.26Y-3.88
X5.265Y-2.994
X5.29Y-3.88
T3
X1.9314Y-1.46
X1.9314Y-4.34
X1.9574Y-1.3974
X1.9574Y-1.5226
X1.9574Y-4.2774
X1.9574Y-4.4026
X2.02Y-1.3714
X2.02Y-1.5486
X2.02Y-4.2514
X2.02Y-4.4286
X2.0826Y-1.3974
X2.0826Y-1.5226
X2.0826Y-4.2774
X2.0826Y-4.4026
X2.1086Y-1.46
X2.1086Y-4.34
X4.2226Y-3.2767
X4.2974Y-3.2767
X5.3714Y-1.46
X5.3714Y-4.34
X5.3974Y-1.3974
X5.3974Y-1.5226
X5.3974Y-4.2774
X5.3974Y-4.4026
X5.46Y-1.3714
X5.46Y-1.5486
X5.46Y-4.2514
X5.46Y-4.4286
X5.5226Y-1.3974
X5.5226Y-1.5226
X5.5226Y-4.2774
X5.5226Y-4.4026
X5.5486Y-1.46
X5.5486Y-4.34
T5
X4.2009Y-3.5031
X4.3191Y-3.5031
T6
X5.4073Y-2.498
X5.4073Y-2.598
X5.4073Y-2.706
X5.4073Y-2.806
X5.4073Y-2.914
X5.4073Y-3.014
T7
X4.7822Y-1.711
X4.8806Y-1.711
X4.9594Y-1.711
X5.0578Y-1.711
T8
X2.04Y-2.1
X2.04Y-2.2
X2.04Y-2.3
X2.04Y-2.4
X2.04Y-2.5
X2.04Y-2.6
X2.04Y-2.7
X2.04Y-2.8
X2.04Y-2.9
X2.04Y-3.0
X2.04Y-3.1
X2.04Y-3.2
X2.04Y-3.3
X2.04Y-3.4
X2.2146Y-4.09
X2.2146Y-4.1884
X2.2146Y-4.2869
X2.7854Y-4.09
X2.7854Y-4.2869
X2.922Y-4.001
X2.922Y-4.101
X2.922Y-4.201
X2.922Y-4.301
X2.922Y-4.401
X4.551Y-3.996
X4.551Y-4.096
X4.551Y-4.196
X4.551Y-4.296
X4.551Y-4.396
X4.6946Y-4.092
X4.6946Y-4.1905
X4.6946Y-4.2889
X5.2654Y-4.092
X5.2654Y-4.2889
X5.5Y-3.2514
X5.5Y-3.4286
X5.5026Y-2.0714
X5.5026Y-2.2486
T9
X5.45Y-3.948
X5.45Y-4.048
T10
X5.4016Y-3.2022
X5.4016Y-3.4778
X5.4042Y-2.0222
X5.4042Y-2.2978
T12
X4.6613Y-1.6043
X5.1787Y-1.6043
T13
X2.02Y-1.46
X2.02Y-4.34
X5.46Y-1.46
X5.46Y-4.34
T14
X2.08Y-1.78
X2.08Y-3.72
X5.42Y-1.76
X5.42Y-3.72
T3
G00X2.3036Y-1.7632
M15
G01X2.3036Y-1.8065
M16
G05
G00X2.4964Y-1.4443
M15
G01X2.4964Y-1.4876
M16
G05
G00X2.4964Y-1.5624
M15
G01X2.4964Y-1.6057
M16
G05
G00X2.4964Y-1.7199
M15
G01X2.4964Y-1.7632
M16
G05
G00X2.8036Y-1.7632
M15
G01X2.8036Y-1.8065
M16
G05
G00X2.9964Y-1.4443
M15
G01X2.9964Y-1.4876
M16
G05
G00X2.9964Y-1.5624
M15
G01X2.9964Y-1.6057
M16
G05
G00X2.9964Y-1.7199
M15
G01X2.9964Y-1.7632
M16
G05
G00X3.3156Y-1.7632
M15
G01X3.3156Y-1.8065
M16
G05
G00X3.5084Y-1.4443
M15
G01X3.5084Y-1.4876
M16
G05
G00X3.5084Y-1.5624
M15
G01X3.5084Y-1.6057
M16
G05
G00X3.5084Y-1.7199
M15
G01X3.5084Y-1.7632
M16
G05
T4
G00X3.9499Y-1.4014
M15
G01X3.9499Y-1.3699
M16
G05
G00X3.9499Y-1.5727
M15
G01X3.9499Y-1.5294
M16
G05
G00X4.2901Y-1.4014
M15
G01X4.2901Y-1.3699
M16
G05
G00X4.2901Y-1.5727
M15
G01X4.2901Y-1.5294
M16
G05
T11
G00X2.4843Y-3.968
M15
G01X2.5354Y-3.968
M16
G05
G00X2.4843Y-4.4089
M15
G01X2.5354Y-4.4089
M16
G05
G00X4.9643Y-3.97
M15
G01X5.0154Y-3.97
M16
G05
G00X4.9643Y-4.4109
M15
G01X5.0154Y-4.4109
M16
G05
M30
