%TF.GenerationSoftware,KiCad,Pcbnew,10.0.5-10.0.5~ubuntu24.04.1*%
%TF.CreationDate,2026-08-28T22:02:56+02:00*%
%TF.ProjectId,mdt-chipdown,6d64742d-6368-4697-9064-6f776e2e6b69,B1*%
%TF.SameCoordinates,Original*%
%TF.FileFunction,Paste,Bot*%
%TF.FilePolarity,Positive*%
%FSLAX46Y46*%
G04 Gerber Fmt 4.6, Leading zero omitted, Abs format (unit mm)*
G04 Created by KiCad (PCBNEW 10.0.5-10.0.5~ubuntu24.04.1) date 2026-08-28 22:02:56*
%MOMM*%
%LPD*%
G01*
G04 APERTURE LIST*
G04 Aperture macros list*
%AMRoundRect*
0 Rectangle with rounded corners*
0 $1 Rounding radius*
0 $2 $3 $4 $5 $6 $7 $8 $9 X,Y pos of 4 corners*
0 Add a 4 corners polygon primitive as box body*
4,1,4,$2,$3,$4,$5,$6,$7,$8,$9,$2,$3,0*
0 Add four circle primitives for the rounded corners*
1,1,$1+$1,$2,$3*
1,1,$1+$1,$4,$5*
1,1,$1+$1,$6,$7*
1,1,$1+$1,$8,$9*
0 Add four rect primitives between the rounded corners*
20,1,$1+$1,$2,$3,$4,$5,0*
20,1,$1+$1,$4,$5,$6,$7,0*
20,1,$1+$1,$6,$7,$8,$9,0*
20,1,$1+$1,$8,$9,$2,$3,0*%
G04 Aperture macros list end*
%ADD10RoundRect,0.250000X0.337500X0.475000X-0.337500X0.475000X-0.337500X-0.475000X0.337500X-0.475000X0*%
%ADD11RoundRect,0.250000X-0.475000X0.337500X-0.475000X-0.337500X0.475000X-0.337500X0.475000X0.337500X0*%
%ADD12RoundRect,0.250000X0.450000X-0.350000X0.450000X0.350000X-0.450000X0.350000X-0.450000X-0.350000X0*%
%ADD13RoundRect,0.250000X-0.337500X-0.475000X0.337500X-0.475000X0.337500X0.475000X-0.337500X0.475000X0*%
%ADD14RoundRect,0.250000X0.475000X-0.337500X0.475000X0.337500X-0.475000X0.337500X-0.475000X-0.337500X0*%
%ADD15RoundRect,0.250000X0.475000X-0.250000X0.475000X0.250000X-0.475000X0.250000X-0.475000X-0.250000X0*%
%ADD16RoundRect,0.250000X0.250000X0.475000X-0.250000X0.475000X-0.250000X-0.475000X0.250000X-0.475000X0*%
%ADD17RoundRect,0.250000X-0.325000X-0.450000X0.325000X-0.450000X0.325000X0.450000X-0.325000X0.450000X0*%
%ADD18RoundRect,0.250000X-0.475000X0.250000X-0.475000X-0.250000X0.475000X-0.250000X0.475000X0.250000X0*%
%ADD19RoundRect,0.250000X-0.450000X0.325000X-0.450000X-0.325000X0.450000X-0.325000X0.450000X0.325000X0*%
G04 APERTURE END LIST*
D10*
%TO.C,C41*%
X102713700Y-73202800D03*
X100638700Y-73202800D03*
%TD*%
D11*
%TO.C,C31*%
X84836000Y-96930300D03*
X84836000Y-99005300D03*
%TD*%
D12*
%TO.C,R1*%
X106172000Y-37576000D03*
X106172000Y-35576000D03*
%TD*%
D11*
%TO.C,C33*%
X109956600Y-78997900D03*
X109956600Y-81072900D03*
%TD*%
D13*
%TO.C,C39*%
X116793100Y-72491600D03*
X118868100Y-72491600D03*
%TD*%
D14*
%TO.C,C8*%
X54864000Y-53361500D03*
X54864000Y-51286500D03*
%TD*%
D13*
%TO.C,C32*%
X116793100Y-74650600D03*
X118868100Y-74650600D03*
%TD*%
D11*
%TO.C,C38*%
X107873800Y-78997900D03*
X107873800Y-81072900D03*
%TD*%
D15*
%TO.C,C42*%
X109880400Y-70368200D03*
X109880400Y-68468200D03*
%TD*%
D14*
%TO.C,C50*%
X112801400Y-61561800D03*
X112801400Y-59486800D03*
%TD*%
D10*
%TO.C,C46*%
X102713700Y-75285600D03*
X100638700Y-75285600D03*
%TD*%
D12*
%TO.C,R18*%
X83159600Y-103844600D03*
X83159600Y-101844600D03*
%TD*%
D14*
%TO.C,C35*%
X110744000Y-61536400D03*
X110744000Y-59461400D03*
%TD*%
D11*
%TO.C,C49*%
X114122200Y-78997900D03*
X114122200Y-81072900D03*
%TD*%
D12*
%TO.C,R2*%
X103124000Y-37576000D03*
X103124000Y-35576000D03*
%TD*%
D14*
%TO.C,C40*%
X108686600Y-61536400D03*
X108686600Y-59461400D03*
%TD*%
D12*
%TO.C,R16*%
X87909400Y-103844600D03*
X87909400Y-101844600D03*
%TD*%
%TO.C,R17*%
X85547200Y-103844600D03*
X85547200Y-101844600D03*
%TD*%
D11*
%TO.C,C29*%
X103098600Y-96930300D03*
X103098600Y-99005300D03*
%TD*%
D14*
%TO.C,C48*%
X105791000Y-81072900D03*
X105791000Y-78997900D03*
%TD*%
D10*
%TO.C,C36*%
X102713700Y-71221600D03*
X100638700Y-71221600D03*
%TD*%
D16*
%TO.C,C47*%
X111490800Y-72415400D03*
X109590800Y-72415400D03*
%TD*%
D13*
%TO.C,C52*%
X116767700Y-76784200D03*
X118842700Y-76784200D03*
%TD*%
D17*
%TO.C,L2*%
X100676600Y-69189600D03*
X102726600Y-69189600D03*
%TD*%
D18*
%TO.C,C51*%
X107467400Y-72710000D03*
X107467400Y-74610000D03*
%TD*%
D15*
%TO.C,C37*%
X107924600Y-70495200D03*
X107924600Y-68595200D03*
%TD*%
D12*
%TO.C,R19*%
X80721200Y-103844600D03*
X80721200Y-101844600D03*
%TD*%
D11*
%TO.C,C28*%
X107137200Y-84966900D03*
X107137200Y-87041900D03*
%TD*%
D13*
%TO.C,C34*%
X116843900Y-70281800D03*
X118918900Y-70281800D03*
%TD*%
D11*
%TO.C,C30*%
X109270800Y-84966900D03*
X109270800Y-87041900D03*
%TD*%
%TO.C,C44*%
X112039400Y-78997900D03*
X112039400Y-81072900D03*
%TD*%
D14*
%TO.C,C45*%
X106603800Y-61536400D03*
X106603800Y-59461400D03*
%TD*%
D19*
%TO.C,L3*%
X104825800Y-72685800D03*
X104825800Y-74735800D03*
%TD*%
M02*
